<?xml version="1.0" standalone="no"?>
<!DOCTYPE svg PUBLIC "-//W3C//DTD SVG 20010904//EN"
 "http://www.w3.org/TR/2001/REC-SVG-20010904/DTD/svg10.dtd">
<svg version="1.0" xmlns="http://www.w3.org/2000/svg"
 width="256.000000pt" height="512.000000pt" viewBox="0 0 256.000000 512.000000"
 preserveAspectRatio="xMidYMid meet">

<g transform="translate(0.000000,512.000000) scale(0.100000,-0.100000)"
fill="#000000" stroke="none">
<path d="M1205 3435 c17 -8 37 -15 45 -16 8 -1 -10 -5 -40 -9 -41 -6 -63 -5
-90 7 -28 12 -74 14 -237 11 l-203 -3 0 -62 c0 -35 -4 -63 -10 -63 -6 0 -10
-138 -10 -395 0 -257 4 -395 10 -395 6 0 10 28 10 65 0 53 3 63 15 59 12 -5
15 6 17 62 1 38 5 -7 8 -101 l5 -169 89 -34 90 -33 468 7 468 7 0 369 0 368
30 0 30 0 0 135 c0 83 -4 135 -10 135 -6 0 -10 -28 -10 -64 0 -59 -2 -64 -19
-59 -14 4 -21 15 -23 41 -3 33 -7 38 -48 54 -25 9 -38 17 -30 18 8 0 -24 16
-71 34 -85 32 -89 33 -300 38 -186 5 -210 4 -184 -7z m-327 -42 c-21 -2 -57
-2 -80 0 -24 2 -7 4 37 4 44 0 63 -2 43 -4z m-161 -340 c-2 -21 -4 -6 -4 32 0
39 2 55 4 38 2 -18 2 -50 0 -70z m1013 -143 l0 -60 -60 0 -60 0 0 60 0 60 60
0 60 0 0 -60z m-590 -10 l0 -60 -60 0 -60 0 0 60 0 60 60 0 60 0 0 -60z m470
-350 l0 -60 -98 0 c-55 0 -160 -3 -235 -7 l-137 -6 0 61 0 61 103 4 c56 1 162
4 235 5 l132 2 0 -60z"/>
</g>
</svg>
