<?xml version="1.0" standalone="no"?>
<!DOCTYPE svg PUBLIC "-//W3C//DTD SVG 20010904//EN"
 "http://www.w3.org/TR/2001/REC-SVG-20010904/DTD/svg10.dtd">
<svg version="1.0" xmlns="http://www.w3.org/2000/svg"
 width="204.000000pt" height="192.000000pt" viewBox="0 0 204.000000 192.000000"
 preserveAspectRatio="xMidYMid meet">

<g transform="translate(0.000000,192.000000) scale(0.100000,-0.100000)"
fill="#000000" stroke="none">
<path d="M760 1388 c0 -18 9 -48 20 -66 18 -29 25 -33 57 -30 42 4 68 33 78
91 l6 37 -81 0 -80 0 0 -32z"/>
<path d="M1113 1379 c6 -47 40 -89 73 -89 32 0 74 54 74 96 l0 34 -76 0 -77 0
6 -41z"/>
<path d="M1335 615 c-72 -41 -197 -82 -285 -94 -121 -16 -276 19 -382 86 -46
28 -48 28 -48 2 0 -27 88 -119 158 -165 125 -83 273 -97 388 -36 74 40 135 90
197 161 43 50 59 81 40 81 -5 0 -35 -16 -68 -35z"/>
</g>
</svg>
